<svg id="visual" viewBox="0 0 900 600" width="900" height="600" xmlns="http://www.w3.org/2000/svg" xmlns:xlink="http://www.w3.org/1999/xlink" version="1.1"><path d="M0 227L21.5 230.3C43 233.7 86 240.3 128.8 225.7C171.7 211 214.3 175 257.2 167C300 159 343 179 385.8 174.5C428.7 170 471.3 141 514.2 118C557 95 600 78 642.8 88C685.7 98 728.3 135 771.2 166C814 197 857 222 878.5 234.5L900 247L900 0L878.5 0C857 0 814 0 771.2 0C728.3 0 685.7 0 642.8 0C600 0 557 0 514.2 0C471.3 0 428.7 0 385.8 0C343 0 300 0 257.2 0C214.3 0 171.7 0 128.8 0C86 0 43 0 21.5 0L0 0Z" fill="#e82312" stroke-linecap="round" stroke-linejoin="miter"></path></svg>