<svg id="visual" viewBox="0 0 900 600" width="900" height="600" xmlns="http://www.w3.org/2000/svg" xmlns:xlink="http://www.w3.org/1999/xlink" version="1.1"><path d="M0 474L21.5 480.2C43 486.3 86 498.7 128.8 493.3C171.7 488 214.3 465 257.2 465.2C300 465.3 343 488.7 385.8 503C428.7 517.3 471.3 522.7 514.2 515.3C557 508 600 488 642.8 473.7C685.7 459.3 728.3 450.7 771.2 457.5C814 464.3 857 486.7 878.5 497.8L900 509L900 601L878.5 601C857 601 814 601 771.2 601C728.3 601 685.7 601 642.8 601C600 601 557 601 514.2 601C471.3 601 428.7 601 385.8 601C343 601 300 601 257.2 601C214.3 601 171.7 601 128.8 601C86 601 43 601 21.5 601L0 601Z" fill="#e82312" stroke-linecap="round" stroke-linejoin="miter"></path></svg>