<?xml version="1.0" encoding="utf-8"?>
<svg width="580px" height="256px" viewBox="0 0 580 256" version="1.1" xmlns:xlink="http://www.w3.org/1999/xlink" xmlns="http://www.w3.org/2000/svg">
  <defs>
    <rect width="580" height="256" id="artboard_1" />
    <clipPath id="clip_1">
      <use xlink:href="#artboard_1" clip-rule="evenodd" />
    </clipPath>
  </defs>
  <g id="Logo" clip-path="url(#clip_1)">
    <g id="Boh" fill="#EEF4ED" transform="translate(40 0)" artboard="c66f5daa-7616-49b2-b139-bafd064a210e">
      <path d="M445.352 220.803L475.313 220.803L475.313 129.27Q475.313 77.8535 424.277 77.8535Q409.805 77.8535 398.95 83.4395Q388.096 89.0254 382.002 99.1816L380.098 99.1816Q381.621 85.4707 381.621 73.4102L381.621 23.2637L351.787 23.2637L351.787 220.803L381.621 220.803L381.621 151.105Q381.621 124.699 390.444 113.464Q399.268 102.229 418.057 102.229Q432.275 102.229 438.813 110.227Q445.352 118.225 445.352 134.475L445.352 220.803ZM24.502 35.1973L79.5996 35.1973Q117.939 35.1973 135.015 46.3691Q152.09 57.541 152.09 81.6621Q152.09 97.9121 143.711 108.703Q135.332 119.494 119.59 122.287L119.59 123.557Q139.141 127.238 148.345 138.093Q157.549 148.947 157.549 167.482Q157.549 192.492 140.093 206.647Q122.637 220.803 91.5332 220.803L24.502 220.803L24.502 35.1973ZM54.8438 111.877L84.043 111.877Q103.086 111.877 111.846 105.847Q120.605 99.8164 120.605 85.3438Q120.605 72.2676 111.147 66.4277Q101.689 60.5879 81.123 60.5879L54.8438 60.5879L54.8438 111.877ZM317.51 150.344Q317.51 184.748 299.863 204.045Q282.217 223.342 250.732 223.342Q231.055 223.342 215.947 214.455Q200.84 205.568 192.715 188.938Q184.59 172.307 184.59 150.344Q184.59 116.193 202.109 97.0234Q219.629 77.8535 251.494 77.8535Q281.963 77.8535 299.736 97.4678Q317.51 117.082 317.51 150.344ZM215.313 150.344Q215.313 198.967 251.24 198.967Q286.787 198.967 286.787 150.344Q286.787 102.229 250.986 102.229Q232.197 102.229 223.755 114.67Q215.313 127.111 215.313 150.344ZM54.8438 136.506L54.8438 195.285L87.0898 195.285Q106.133 195.285 115.845 187.985Q125.557 180.686 125.557 164.943Q125.557 150.471 115.654 143.488Q105.752 136.506 85.5664 136.506L54.8438 136.506Z" />
    </g>
    <path d="M0 0L192 0L192 16L0 16L0 0Z" id="T" fill="#EF2917" fill-rule="evenodd" stroke="none" artboard="67415894-5ba2-4558-9d3c-dbc804b38606" />
    <path d="M0 0L16 0L16 128L0 128L0 0Z" id="L" fill="#EF2917" fill-rule="evenodd" stroke="none" artboard="b1490b73-658d-45ea-a668-446c5517e9ca" />
    <path d="M564 256L213 256L213 240L564 240L564 256Z" id="B" fill="#EF2917" fill-rule="evenodd" stroke="none" artboard="d1557b8d-a43b-40c2-b860-23b2e433824a" />
    <path d="M580 256L564 256L564 128L580 128L580 256Z" id="R" fill="#EF2917" fill-rule="evenodd" stroke="none" artboard="385cc35f-fdd0-4e06-ade2-0f927c91b1f1" />
    <path d="M544 18.4999L544 22.4999L486 22.4999L486 18.4999L544 18.4999Z" id="R-2" fill="none" fill-rule="evenodd" stroke="none" artboard="a9751ba4-f566-471d-a93e-29a83f073b37" />
    <path d="M580 72.5001L580 76.5001L522 76.5001L522 72.5001L580 72.5001Z" id="R-3" fill="#EF2917" fill-rule="evenodd" stroke="none" artboard="ebf06e9e-7a5b-4e82-bc16-9fb8627e813d" />
    <path d="M576 76.5L580 76.5L580 94.5L576 94.5L576 76.5Z" id="R-4" fill="#EF2917" fill-rule="evenodd" stroke="none" artboard="ebec295c-e2a4-4d68-96cf-4f3eff6ae027" />
    <path d="M486 0.5L490 0.5L490 18.5L486 18.5L486 0.5Z" id="R-5" fill="none" fill-rule="evenodd" stroke="none" artboard="1586e32e-5407-43f1-87b3-dc12b5fb7bed" />
    <g id="AG" fill="#EEF4ED" transform="translate(486 22.516174)" artboard="d95cd404-99be-4a43-bf50-6dbf0f1ec5f2">
      <path d="M89.0625 23.0625L72.25 23.0625L72.25 29.4688L81.7188 29.4688L81.7188 41.25Q77.5938 42.1563 73.9688 42.1563Q66.7813 42.1563 62.9531 37.7969Q59.125 33.4375 59.125 25.0625Q59.125 17.0938 63.375 12.5Q67.625 7.90625 74.9375 7.90625Q80.5 7.90625 86.0625 10.4688L88.6875 4.25Q82.2813 1.5 75.125 1.5Q64 1.5 57.6563 7.73438Q51.3125 13.9688 51.3125 25Q51.3125 36.1875 56.9375 42.3281Q62.5625 48.4688 72.9375 48.4688Q77.3438 48.4688 81.1406 47.9063Q84.9375 47.3438 89.0625 46L89.0625 23.0625ZM35.0313 35.1563L39.5938 47.8438L47.5313 47.8438L30.4375 1.96875L22.3125 1.96875L5.21875 47.8438L13.0938 47.8438L17.5625 35.1563L35.0313 35.1563ZM28.7813 16.2813L33.0625 28.7188L19.75 28.7188L23.875 16.8125Q25.5 12.25 26.3438 8.40625Q26.6563 9.65625 27.4844 12.3438Q28.3125 15.0313 28.7813 16.2813Z" />
    </g>
  </g>
</svg>