<?xml version="1.0" encoding="utf-8"?>
<svg width="256px" height="256px" viewBox="0 0 256 256" version="1.1" xmlns:xlink="http://www.w3.org/1999/xlink" xmlns="http://www.w3.org/2000/svg">
  <defs>
    <rect width="256" height="256" id="artboard_1" />
    <clipPath id="clip_1">
      <use xlink:href="#artboard_1" clip-rule="evenodd" />
    </clipPath>
  </defs>
  <g id="Inverted-Emblem" clip-path="url(#clip_1)">
    <g id="theboh.de" fill="#EEF4ED" transform="matrix(-4.371139E-08 -1 1 -4.371139E-08 -12.999886 256.99994)" artboard="a4bee98e-c630-4cc4-8acf-a6a65a392b42">
      <path d="M0 46.11L0 11.89L1.74 11.89L1.74 46.11L0 46.11ZM5.22 46.11L5.22 11.89L12.18 11.89L12.18 46.11L5.22 46.11ZM13.92 46.11L13.92 11.89L15.66 11.89L15.66 46.11L13.92 46.11ZM19.14 46.11L19.14 11.89L20.88 11.89L20.88 46.11L19.14 46.11ZM24.36 46.11L24.36 11.89L27.84 11.89L27.84 46.11L24.36 46.11ZM34.8 46.11L34.8 11.89L36.54 11.89L36.54 46.11L34.8 46.11ZM38.28 11.89L38.28 46.11L40.02 46.11L40.02 11.89L38.28 11.89ZM41.76 11.89L41.76 46.11L45.24 46.11L45.24 11.89L41.76 11.89ZM48.72 11.89L48.72 46.11L50.46 46.11L50.46 11.89L48.72 11.89ZM57.42 46.11L57.42 11.89L59.16 11.89L59.16 46.11L57.42 46.11ZM62.64 46.11L62.64 11.89L64.38 11.89L64.38 46.11L62.64 46.11ZM71.34 46.11L71.34 11.89L74.82 11.89L74.82 46.11L71.34 46.11ZM76.56 11.89L76.56 46.11L78.3 46.11L78.3 11.89L76.56 11.89ZM83.52 11.89L83.52 46.11L90.48 46.11L90.48 11.89L83.52 11.89ZM92.22 11.89L92.22 46.11L93.96 46.11L93.96 11.89L92.22 11.89ZM95.7 46.11L95.7 11.89L97.44 11.89L97.44 46.11L95.7 46.11ZM100.92 46.11L100.92 11.89L104.4 11.89L104.4 46.11L100.92 46.11ZM111.36 46.11L111.36 11.89L113.1 11.89L113.1 46.11L111.36 46.11ZM114.84 11.89L114.84 46.11L116.58 46.11L116.58 11.89L114.84 11.89ZM120.06 11.89L120.06 46.11L123.54 46.11L123.54 11.89L120.06 11.89ZM127.02 11.89L127.02 46.11L132.24 46.11L132.24 11.89L127.02 11.89ZM133.98 46.11L133.98 11.89L135.72 11.89L135.72 46.11L133.98 46.11ZM142.68 46.11L142.68 11.89L144.42 11.89L144.42 46.11L142.68 46.11ZM147.9 46.11L147.9 11.89L151.38 11.89L151.38 46.11L147.9 46.11ZM153.12 11.89L153.12 46.11L154.86 46.11L154.86 11.89L153.12 11.89ZM156.6 11.89L156.6 46.11L160.08 46.11L160.08 11.89L156.6 11.89ZM163.56 11.89L163.56 46.11L165.3 46.11L165.3 11.89L163.56 11.89ZM24.882 50.286L26.622 50.286L26.622 50.402Q26.448 50.576 26.448 50.692Q26.39 50.866 26.39 51.214L26.39 56.492Q26.97 55.622 27.84 55.042Q28.71 54.52 29.638 54.52Q31.03 54.52 31.842 55.506Q32.654 56.492 32.654 58.638L32.654 64.612L31.146 64.612L31.146 58.696Q31.146 57.188 30.624 56.55Q30.102 55.854 29.29 55.854Q28.594 55.854 27.956 56.26Q27.26 56.608 26.854 57.362Q26.39 58.058 26.39 58.928L26.39 64.612L24.882 64.612L24.882 50.286ZM67.338 64.844Q66.468 64.844 65.714 64.438Q64.96 64.032 64.438 63.336L63.858 64.612L62.872 64.612L62.872 50.286L64.67 50.286L64.67 50.402Q64.554 50.576 64.496 50.692Q64.438 50.866 64.438 51.214L64.438 56.26Q64.96 55.448 65.772 54.984Q66.584 54.52 67.396 54.52Q69.252 54.52 70.354 55.796Q71.456 57.13 71.456 59.566Q71.456 61.248 70.876 62.466Q70.296 63.684 69.31 64.264Q68.382 64.844 67.338 64.844ZM101.442 50.286L103.182 50.286L103.182 50.402Q103.008 50.576 103.008 50.692Q102.95 50.866 102.95 51.214L102.95 56.492Q103.53 55.622 104.4 55.042Q105.27 54.52 106.198 54.52Q107.59 54.52 108.402 55.506Q109.214 56.492 109.214 58.638L109.214 64.612L107.706 64.612L107.706 58.696Q107.706 57.188 107.184 56.55Q106.662 55.854 105.85 55.854Q105.154 55.854 104.516 56.26Q103.82 56.608 103.414 57.362Q102.95 58.058 102.95 58.928L102.95 64.612L101.442 64.612L101.442 50.286ZM143.202 64.844Q142.158 64.844 141.23 64.206Q140.302 63.626 139.722 62.466Q139.142 61.248 139.142 59.566Q139.142 57.884 139.722 56.724Q140.36 55.622 141.288 55.042Q142.216 54.52 143.26 54.52Q144.304 54.52 145 54.926Q145.754 55.39 146.16 56.202L146.16 50.286L147.784 50.286L147.784 50.402Q147.668 50.576 147.61 50.692L147.61 63.104Q147.61 63.626 147.668 63.916Q147.668 64.264 147.842 64.612L146.334 64.612Q146.16 64.264 146.102 63.916L146.102 63.104Q145.638 63.916 144.884 64.38Q144.13 64.844 143.202 64.844ZM13.746 63.684Q12.354 64.786 10.614 64.786Q8.99 64.786 8.294 63.8Q7.598 62.756 7.598 60.552Q7.598 60.146 7.656 59.276L7.888 56.028L5.684 56.028L5.684 54.752L7.946 54.752L8.12 52.142L9.802 51.852L10.034 51.852L10.034 51.968Q9.918 52.142 9.86 52.316Q9.744 52.49 9.744 52.78L9.512 54.752L12.76 54.752L12.76 56.028L9.396 56.028L9.222 59.392Q9.164 60.262 9.164 60.494Q9.164 62.234 9.57 62.872Q9.976 63.452 10.846 63.452Q11.484 63.452 12.064 63.22Q12.586 62.988 13.282 62.466L13.746 63.684ZM44.834 63.51Q46.11 64.844 48.314 64.844Q50.518 64.844 51.794 63.336L50.924 62.466Q49.938 63.568 48.372 63.568Q46.922 63.568 45.994 62.64Q45.066 61.712 45.008 59.914L52.026 59.914L52.026 59.218Q52.026 56.898 50.924 55.68Q49.822 54.52 48.024 54.52Q46.748 54.52 45.762 55.158Q44.718 55.738 44.138 56.898Q43.5 58.116 43.5 59.74Q43.5 62.176 44.834 63.51ZM83.752 64.148Q84.796 64.786 86.13 64.786Q87.464 64.786 88.45 64.148Q89.494 63.51 90.074 62.35Q90.654 61.19 90.654 59.682Q90.654 58.174 90.074 57.014Q89.494 55.854 88.45 55.216Q87.464 54.52 86.13 54.52Q84.796 54.52 83.752 55.216Q82.766 55.854 82.186 57.014Q81.548 58.174 81.548 59.682Q81.548 61.19 82.186 62.35Q82.766 63.51 83.752 64.148ZM159.674 63.51Q160.95 64.844 163.154 64.844Q165.358 64.844 166.634 63.336L165.764 62.466Q164.778 63.568 163.212 63.568Q161.762 63.568 160.834 62.64Q159.906 61.712 159.848 59.914L166.866 59.914L166.866 59.218Q166.866 56.898 165.764 55.68Q164.662 54.52 162.864 54.52Q161.588 54.52 160.602 55.158Q159.558 55.738 158.978 56.898Q158.34 58.116 158.34 59.74Q158.34 62.176 159.674 63.51ZM49.764 56.492Q50.46 57.304 50.46 58.696L45.066 58.696Q45.24 57.188 46.052 56.434Q46.864 55.68 47.908 55.68Q49.068 55.68 49.764 56.492ZM164.604 56.492Q165.3 57.304 165.3 58.696L159.906 58.696Q160.08 57.188 160.892 56.434Q161.704 55.68 162.748 55.68Q163.908 55.68 164.604 56.492ZM143.434 63.452Q144.768 63.452 145.406 62.408Q146.044 61.364 146.044 59.624Q146.044 57.884 145.348 56.84Q144.652 55.796 143.318 55.796Q142.042 55.796 141.346 56.724Q140.65 57.71 140.65 59.334Q140.65 61.248 141.346 62.35Q142.1 63.452 143.434 63.452ZM67.164 63.452Q68.324 63.452 69.078 62.524Q69.832 61.654 69.832 59.682Q69.832 57.768 69.136 56.84Q68.382 55.854 67.164 55.854Q65.946 55.854 65.192 56.956Q64.438 58 64.438 59.74Q64.438 63.452 67.164 63.452ZM87.638 62.988Q86.942 63.51 86.13 63.51Q85.26 63.51 84.622 62.988Q83.984 62.524 83.578 61.654Q83.23 60.726 83.23 59.624Q83.23 57.942 84.042 56.898Q84.854 55.854 86.13 55.854Q87.406 55.854 88.218 56.898Q89.03 57.942 89.03 59.624Q89.03 60.726 88.682 61.654Q88.276 62.524 87.638 62.988ZM123.25 64.496Q123.656 64.844 124.12 64.844Q124.642 64.844 124.99 64.496Q125.396 64.09 125.396 63.626Q125.396 63.104 124.99 62.756Q124.642 62.408 124.12 62.408Q123.656 62.408 123.25 62.756Q122.902 63.104 122.902 63.626Q122.902 64.09 123.25 64.496Z" />
    </g>
    <g id="B" fill="#EEF4ED" transform="translate(36 32.99991)" artboard="43a795ff-ff30-4536-b249-95e5d15325fd">
      <path d="M30.6816 3.19727L85.7793 3.19727Q124.119 3.19727 141.194 14.3691Q158.27 25.541 158.27 49.6621Q158.27 65.9121 149.891 76.7031Q141.512 87.4942 125.77 90.2871L125.77 91.5566Q145.32 95.2383 154.524 106.093Q163.729 116.947 163.729 135.482Q163.729 160.492 146.272 174.647C134.635 184.084 118.449 188.803 97.7129 188.803L30.6816 188.803L30.6816 3.19727ZM61.0234 79.877L90.2227 79.877Q109.266 79.877 118.025 73.8467Q126.785 67.8164 126.785 53.3438Q126.785 40.2676 117.327 34.4277Q107.869 28.5879 87.3027 28.5879L61.0234 28.5879L61.0234 79.877ZM61.0234 104.506L61.0234 163.285L93.2695 163.285Q112.313 163.285 122.024 155.985Q131.736 148.686 131.736 132.943Q131.736 118.471 121.834 111.488Q111.932 104.506 91.7461 104.506L61.0234 104.506Z" />
    </g>
    <path d="M240 128L256 128L256 256L240 256L240 128Z" id="Rectangle" fill="#EF2917" fill-rule="evenodd" stroke="none" artboard="71931c7a-f56c-44bb-833a-c98ff65611fd" />
    <path d="M256 240L256 256L56 256L56 240L256 240Z" id="Rectangle-2" fill="#EF2917" fill-rule="evenodd" stroke="none" artboard="34adef3f-dcc8-4368-a7a7-aa6d2fe7c423" />
    <path d="M16.0004 128L0.000419617 128L0.000431061 -0.00012207L16.0004 -0.00012207L16.0004 128Z" id="Rectangle-3" fill="#EF2917" fill-rule="evenodd" stroke="none" artboard="175573fc-ac5d-4211-9b98-991ee679f570" />
    <path d="M-7.62939e-06 16.0003L-8.32878e-06 0.000297546L200 0.00028801L200 16.0003L-7.62939e-06 16.0003Z" id="Rectangle-4" fill="#EF2917" fill-rule="evenodd" stroke="none" artboard="efbe1f68-d02e-4ca7-b5ed-29b75ac07c93" />
  </g>
</svg>